<svg width="148" height="59" viewBox="0 0 148 59" fill="none" xmlns="http://www.w3.org/2000/svg">
<g clip-path="url(#clip0_3144_6887)">
<path d="M55.3336 14V38.377H52.9468L52.6157 35.5279C51.456 37.5158 49.1011 38.7077 46.4805 38.7077C42.0699 38.7077 38.4897 35.627 38.4897 30.0633C38.4897 24.4996 42.1372 21.2862 46.4805 21.2862C49.1665 21.2862 51.4542 22.4464 52.6157 24.367V14H55.3354H55.3336ZM52.5484 30.0633C52.5484 26.1549 50.0606 23.672 46.9107 23.7037C43.5943 23.7374 41.3067 26.1885 41.3067 30.0633C41.3067 33.938 43.628 36.3219 46.9107 36.3219C50.1934 36.3219 52.5484 34.0034 52.5484 30.0633Z" fill="#E2FF6F"/>
<path d="M73.3726 30.7582H59.9107C59.9761 34.4667 62.3984 36.3891 65.4155 36.3891C67.6714 36.3891 69.5606 35.2962 70.3892 33.1103H73.1744C72.2129 36.4545 69.3286 38.674 65.3482 38.674C60.4082 38.674 57.1255 35.1972 57.1255 29.9642C57.1255 24.7312 60.4082 21.2861 65.3164 21.2861C70.2246 21.2861 73.3745 24.5986 73.3745 29.5663V30.7582H73.3726ZM59.9425 28.7386H70.5875C70.3892 25.2618 68.1334 23.5056 65.3145 23.5056C62.4957 23.5056 60.2735 25.2282 59.9425 28.7386Z" fill="#E2FF6F"/>
<path d="M89.8198 28.3407V38.3751H87.1001V28.903C87.1001 25.4262 85.2763 23.769 82.5566 23.769C79.4067 23.769 77.7158 26.0203 77.7158 29.301V38.3751H74.9961V21.6168H77.3828L77.6821 24.2006C78.6436 22.3454 80.6001 21.2861 83.187 21.2861C87.3657 21.2861 89.8198 24.068 89.8198 28.3407Z" fill="#E2FF6F"/>
<path d="M93.6339 33.4411C93.6994 35.4289 95.424 36.5873 98.0109 36.5873C100.598 36.5873 102.19 35.5597 102.19 33.8054C102.19 32.3145 101.395 31.5205 99.4381 31.2552L95.9571 30.6929C92.7735 30.1623 91.3145 28.6397 91.3145 26.1231C91.3145 23.175 94.1333 21.2881 97.8145 21.2881C101.761 21.2881 104.612 23.175 104.646 26.5211H101.959C101.894 24.5015 100.201 23.4086 97.8481 23.4086C95.495 23.4086 94.0024 24.4025 94.0024 26.0577C94.0024 27.4814 94.9302 28.1782 97.0195 28.4753L100.435 29.0376C103.486 29.5346 104.945 30.9918 104.945 33.5756C104.945 36.888 101.928 38.7096 98.0801 38.7096C93.6694 38.7096 90.9497 36.6564 90.8843 33.443H93.6358L93.6339 33.4411Z" fill="#E2FF6F"/>
<path d="M106.731 14.8276H110.113V18.0074H106.731V14.8276ZM107.062 21.6169H109.782V38.3752H107.062V21.6169Z" fill="#E2FF6F"/>
<path d="M113.727 34.1697V24.068H110.709V21.6168H112.301C113.362 21.6168 113.727 21.1535 113.727 20.126V17.2451H116.446V21.6168H120.393V24.068H116.446V33.8054C116.446 35.0309 116.845 35.9258 118.468 35.9258H120.358V38.377H117.838C115.35 38.377 113.727 37.0188 113.727 34.1715V34.1697Z" fill="#E2FF6F"/>
<path d="M130.041 36.5556L135.114 21.5852L137.998 21.6188L130.969 41.0936C129.775 44.3387 127.952 45.0019 125.498 45.0019H122.181V42.5508H125.531C127.256 42.5508 128.316 41.6241 128.316 39.7353C128.316 39.272 128.217 38.8087 128.017 38.2781L121.584 21.6188H124.536L130.041 36.5556Z" fill="#E2FF6F"/>
<path d="M12.398 18.8613H10.318C10.1424 18.8613 10 19.0035 10 19.1789V21.2564C10 21.4318 10.1424 21.574 10.318 21.574H12.398C12.5736 21.574 12.716 21.4318 12.716 21.2564V19.1789C12.716 19.0035 12.5736 18.8613 12.398 18.8613Z" fill="#E2FF6F"/>
<path d="M16.1519 21.574H14.128C13.9522 21.574 13.8101 21.432 13.8101 21.2563V19.177C13.8101 19.0014 13.9522 18.8594 14.128 18.8594H16.1519C16.3577 18.8594 16.526 19.0275 16.526 19.233V21.1984C16.526 21.4039 16.3577 21.5721 16.1519 21.5721V21.574Z" fill="#E2FF6F"/>
<path d="M20.0166 18.8613H17.9366C17.761 18.8613 17.6187 19.0035 17.6187 19.1789V21.2564C17.6187 21.4318 17.761 21.574 17.9366 21.574H20.0166C20.1922 21.574 20.3346 21.4318 20.3346 21.2564V19.1789C20.3346 19.0035 20.1922 18.8613 20.0166 18.8613Z" fill="#E2FF6F"/>
<path d="M23.8286 18.8613H21.7486C21.573 18.8613 21.4307 19.0035 21.4307 19.1789V21.2564C21.4307 21.4318 21.573 21.574 21.7486 21.574H23.8286C24.0043 21.574 24.1466 21.4318 24.1466 21.2564V19.1789C24.1466 19.0035 24.0043 18.8613 23.8286 18.8613Z" fill="#E2FF6F"/>
<path d="M27.648 22.6426H25.568C25.3924 22.6426 25.25 22.7848 25.25 22.9602V25.0377C25.25 25.2131 25.3924 25.3553 25.568 25.3553H27.648C27.8236 25.3553 27.966 25.2131 27.966 25.0377V22.9602C27.966 22.7848 27.8236 22.6426 27.648 22.6426Z" fill="#E2FF6F"/>
<path d="M23.8286 22.6426H21.7486C21.573 22.6426 21.4307 22.7848 21.4307 22.9602V25.0377C21.4307 25.2131 21.573 25.3553 21.7486 25.3553H23.8286C24.0043 25.3553 24.1466 25.2131 24.1466 25.0377V22.9602C24.1466 22.7848 24.0043 22.6426 23.8286 22.6426Z" fill="#E2FF6F"/>
<path d="M20.0166 22.6426H17.9366C17.761 22.6426 17.6187 22.7848 17.6187 22.9602V25.0377C17.6187 25.2131 17.761 25.3553 17.9366 25.3553H20.0166C20.1922 25.3553 20.3346 25.2131 20.3346 25.0377V22.9602C20.3346 22.7848 20.1922 22.6426 20.0166 22.6426Z" fill="#E2FF6F"/>
<path d="M14.1842 22.6426H16.208C16.3839 22.6426 16.526 22.7846 16.526 22.9602V25.0396C16.526 25.2152 16.3839 25.3572 16.208 25.3572H14.1842C13.9784 25.3572 13.8101 25.189 13.8101 24.9835V23.0181C13.8101 22.8126 13.9784 22.6444 14.1842 22.6444V22.6426Z" fill="#E2FF6F"/>
<path d="M12.398 22.6426H10.318C10.1424 22.6426 10 22.7848 10 22.9602V25.0377C10 25.2131 10.1424 25.3553 10.318 25.3553H12.398C12.5736 25.3553 12.716 25.2131 12.716 25.0377V22.9602C12.716 22.7848 12.5736 22.6426 12.398 22.6426Z" fill="#E2FF6F"/>
<path d="M12.3419 26.4221H10.3741C10.1675 26.4221 10 26.5894 10 26.7958V28.7612C10 28.9675 10.1675 29.1348 10.3741 29.1348H12.3419C12.5485 29.1348 12.716 28.9675 12.716 28.7612V26.7958C12.716 26.5894 12.5485 26.4221 12.3419 26.4221Z" fill="#E2FF6F"/>
<path d="M16.21 29.1348H14.1861C13.9804 29.1348 13.812 28.9667 13.812 28.7612V26.7958C13.812 26.5903 13.9804 26.4221 14.1861 26.4221H16.21C16.3858 26.4221 16.528 26.5641 16.528 26.7397V28.8191C16.528 28.9947 16.3858 29.1367 16.21 29.1367V29.1348Z" fill="#E2FF6F"/>
<path d="M20.0166 26.4221H17.9366C17.761 26.4221 17.6187 26.5643 17.6187 26.7397V28.8172C17.6187 28.9926 17.761 29.1348 17.9366 29.1348H20.0166C20.1922 29.1348 20.3346 28.9926 20.3346 28.8172V26.7397C20.3346 26.5643 20.1922 26.4221 20.0166 26.4221Z" fill="#E2FF6F"/>
<path d="M23.8286 26.4221H21.7486C21.573 26.4221 21.4307 26.5643 21.4307 26.7397V28.8172C21.4307 28.9926 21.573 29.1348 21.7486 29.1348H23.8286C24.0043 29.1348 24.1466 28.9926 24.1466 28.8172V26.7397C24.1466 26.5643 24.0043 26.4221 23.8286 26.4221Z" fill="#E2FF6F"/>
<path d="M27.648 26.4221H25.568C25.3924 26.4221 25.25 26.5643 25.25 26.7397V28.8172C25.25 28.9926 25.3924 29.1348 25.568 29.1348H27.648C27.8236 29.1348 27.966 28.9926 27.966 28.8172V26.7397C27.966 26.5643 27.8236 26.4221 27.648 26.4221Z" fill="#E2FF6F"/>
<path d="M31.4585 26.4221H29.3785C29.2029 26.4221 29.0605 26.5643 29.0605 26.7397V28.8172C29.0605 28.9926 29.2029 29.1348 29.3785 29.1348H31.4585C31.6341 29.1348 31.7765 28.9926 31.7765 28.8172V26.7397C31.7765 26.5643 31.6341 26.4221 31.4585 26.4221Z" fill="#E2FF6F"/>
<path d="M31.4585 30.2034H29.3785C29.2029 30.2034 29.0605 30.3456 29.0605 30.521V32.5985C29.0605 32.7739 29.2029 32.9161 29.3785 32.9161H31.4585C31.6341 32.9161 31.7765 32.7739 31.7765 32.5985V30.521C31.7765 30.3456 31.6341 30.2034 31.4585 30.2034Z" fill="#E2FF6F"/>
<path d="M27.648 30.2034H25.568C25.3924 30.2034 25.25 30.3456 25.25 30.521V32.5985C25.25 32.7739 25.3924 32.9161 25.568 32.9161H27.648C27.8236 32.9161 27.966 32.7739 27.966 32.5985V30.521C27.966 30.3456 27.8236 30.2034 27.648 30.2034Z" fill="#E2FF6F"/>
<path d="M23.8286 30.2034H21.7486C21.573 30.2034 21.4307 30.3456 21.4307 30.521V32.5985C21.4307 32.7739 21.573 32.9161 21.7486 32.9161H23.8286C24.0043 32.9161 24.1466 32.7739 24.1466 32.5985V30.521C24.1466 30.3456 24.0043 30.2034 23.8286 30.2034Z" fill="#E2FF6F"/>
<path d="M20.0166 30.2034H17.9366C17.761 30.2034 17.6187 30.3456 17.6187 30.521V32.5985C17.6187 32.7739 17.761 32.9161 17.9366 32.9161H20.0166C20.1922 32.9161 20.3346 32.7739 20.3346 32.5985V30.521C20.3346 30.3456 20.1922 30.2034 20.0166 30.2034Z" fill="#E2FF6F"/>
<path d="M14.1842 30.2034H16.208C16.3839 30.2034 16.526 30.3454 16.526 30.521V32.6003C16.526 32.776 16.3839 32.9179 16.208 32.9179H14.1842C13.9784 32.9179 13.8101 32.7498 13.8101 32.5443V30.5789C13.8101 30.3734 13.9784 30.2052 14.1842 30.2052V30.2034Z" fill="#E2FF6F"/>
<path d="M12.398 30.2034H10.318C10.1424 30.2034 10 30.3456 10 30.521V32.5985C10 32.7739 10.1424 32.9161 10.318 32.9161H12.398C12.5736 32.9161 12.716 32.7739 12.716 32.5985V30.521C12.716 30.3456 12.5736 30.2034 12.398 30.2034Z" fill="#E2FF6F"/>
<path d="M12.398 33.9829H10.318C10.1424 33.9829 10 34.1251 10 34.3005V36.378C10 36.5534 10.1424 36.6956 10.318 36.6956H12.398C12.5736 36.6956 12.716 36.5534 12.716 36.378V34.3005C12.716 34.1251 12.5736 33.9829 12.398 33.9829Z" fill="#E2FF6F"/>
<path d="M16.21 36.6956H14.1861C13.9804 36.6956 13.812 36.5275 13.812 36.322V34.3566C13.812 34.1511 13.9804 33.9829 14.1861 33.9829H16.21C16.3858 33.9829 16.528 34.1249 16.528 34.3005V36.3799C16.528 36.5555 16.3858 36.6975 16.21 36.6975V36.6956Z" fill="#E2FF6F"/>
<path d="M20.0166 33.9829H17.9366C17.761 33.9829 17.6187 34.1251 17.6187 34.3005V36.378C17.6187 36.5534 17.761 36.6956 17.9366 36.6956H20.0166C20.1922 36.6956 20.3346 36.5534 20.3346 36.378V34.3005C20.3346 34.1251 20.1922 33.9829 20.0166 33.9829Z" fill="#E2FF6F"/>
<path d="M23.8286 33.9829H21.7486C21.573 33.9829 21.4307 34.1251 21.4307 34.3005V36.378C21.4307 36.5534 21.573 36.6956 21.7486 36.6956H23.8286C24.0043 36.6956 24.1466 36.5534 24.1466 36.378V34.3005C24.1466 34.1251 24.0043 33.9829 23.8286 33.9829Z" fill="#E2FF6F"/>
<path d="M27.648 33.9829H25.568C25.3924 33.9829 25.25 34.1251 25.25 34.3005V36.378C25.25 36.5534 25.3924 36.6956 25.568 36.6956H27.648C27.8236 36.6956 27.966 36.5534 27.966 36.378V34.3005C27.966 34.1251 27.8236 33.9829 27.648 33.9829Z" fill="#E2FF6F"/>
<path d="M23.8286 37.7642H21.7486C21.573 37.7642 21.4307 37.9064 21.4307 38.0818V40.1593C21.4307 40.3347 21.573 40.4769 21.7486 40.4769H23.8286C24.0043 40.4769 24.1466 40.3347 24.1466 40.1593V38.0818C24.1466 37.9064 24.0043 37.7642 23.8286 37.7642Z" fill="#E2FF6F"/>
<path d="M20.0166 37.7642H17.9366C17.761 37.7642 17.6187 37.9064 17.6187 38.0818V40.1593C17.6187 40.3347 17.761 40.4769 17.9366 40.4769H20.0166C20.1922 40.4769 20.3346 40.3347 20.3346 40.1593V38.0818C20.3346 37.9064 20.1922 37.7642 20.0166 37.7642Z" fill="#E2FF6F"/>
<path d="M14.1842 37.7642H16.208C16.3839 37.7642 16.526 37.9061 16.526 38.0818V40.1611C16.526 40.3368 16.3839 40.4787 16.208 40.4787H14.1842C13.9784 40.4787 13.8101 40.3106 13.8101 40.1051V38.1397C13.8101 37.9342 13.9784 37.766 14.1842 37.766V37.7642Z" fill="#E2FF6F"/>
<path d="M12.398 37.7642H10.318C10.1424 37.7642 10 37.9064 10 38.0818V40.1593C10 40.3347 10.1424 40.4769 10.318 40.4769H12.398C12.5736 40.4769 12.716 40.3347 12.716 40.1593V38.0818C12.716 37.9064 12.5736 37.7642 12.398 37.7642Z" fill="#E2FF6F"/>
</g>
<defs>
<clipPath id="clip0_3144_6887">
<rect width="128" height="31" fill="white" transform="translate(10 14)"/>
</clipPath>
</defs>
</svg>
